<svg xmlns="http://www.w3.org/2000/svg" xmlns:xlink="http://www.w3.org/1999/xlink" width="500" zoomAndPan="magnify" viewBox="0 0 375 374.999991" height="500" preserveAspectRatio="xMidYMid meet" version="1.0"><defs><clipPath id="1953037e53"><path d="M 209 169 L 255 169 L 255 238.371094 L 209 238.371094 Z M 209 169 " clip-rule="nonzero"/></clipPath><clipPath id="e86cfc4031"><path d="M 121 115 L 234 115 L 234 238.371094 L 121 238.371094 Z M 121 115 " clip-rule="nonzero"/></clipPath><clipPath id="ccc577df07"><path d="M 231 157 L 290 157 L 290 239 L 231 239 Z M 231 157 " clip-rule="nonzero"/></clipPath><clipPath id="2588cedd4f"><path d="M 294.320312 165.164062 L 248.519531 243.570312 L 226.839844 230.90625 L 272.644531 152.5 Z M 294.320312 165.164062 " clip-rule="nonzero"/></clipPath><clipPath id="95af982134"><path d="M 254.878906 232.679688 C 251.382812 238.664062 243.695312 240.683594 237.710938 237.183594 C 231.726562 233.6875 229.707031 226 233.203125 220.015625 L 266.3125 163.335938 C 269.808594 157.351562 277.496094 155.335938 283.484375 158.832031 C 289.46875 162.328125 291.488281 170.015625 287.992188 176 Z M 254.878906 232.679688 " clip-rule="nonzero"/></clipPath><clipPath id="63fd54e9a4"><path d="M 0 0 L 59 0 L 59 82 L 0 82 Z M 0 0 " clip-rule="nonzero"/></clipPath><clipPath id="64728d963e"><path d="M 63.320312 8.164062 L 17.519531 86.570312 L -4.160156 73.90625 L 41.644531 -4.5 Z M 63.320312 8.164062 " clip-rule="nonzero"/></clipPath><clipPath id="31b9d4c5f0"><path d="M 23.878906 75.679688 C 20.382812 81.664062 12.695312 83.683594 6.710938 80.183594 C 0.726562 76.6875 -1.292969 69 2.203125 63.015625 L 35.3125 6.335938 C 38.808594 0.351562 46.496094 -1.664062 52.484375 1.832031 C 58.46875 5.328125 60.488281 13.015625 56.992188 19 Z M 23.878906 75.679688 " clip-rule="nonzero"/></clipPath><clipPath id="c82ee88d06"><rect x="0" width="59" y="0" height="82"/></clipPath></defs><rect x="-37.5" width="450" fill="#ffffff" y="-37.499999" height="449.999989" fill-opacity="1"/><rect x="-37.5" width="450" fill="#0a0a0a" y="-37.499999" height="449.999989" fill-opacity="1"/><g clip-path="url(#1953037e53)"><path fill="#e7e3dd" d="M 252.496094 221.472656 L 222.71875 169.90625 L 209.589844 192.671875 L 232.773438 232.84375 C 234.871094 236.476562 238.699219 238.542969 242.636719 238.542969 C 244.5625 238.542969 246.519531 238.039062 248.308594 237.007812 C 253.78125 233.847656 255.625 226.921875 252.496094 221.472656 Z M 252.496094 221.472656 " fill-opacity="1" fill-rule="nonzero"/></g><g clip-path="url(#e86cfc4031)"><path fill="#e7e3dd" d="M 231.601562 141.578125 L 218.976562 163.453125 L 205.816406 186.21875 L 185.480469 221.445312 C 179.390625 232.003906 168.019531 238.570312 155.839844 238.570312 C 143.464844 238.570312 132.375 232.171875 126.171875 221.445312 C 119.96875 210.746094 119.96875 197.925781 126.171875 187.195312 L 161.761719 125.597656 C 165.449219 119.199219 172.070312 115.375 179.445312 115.375 C 186.820312 115.375 193.441406 119.199219 197.15625 125.597656 L 198.441406 127.832031 L 202.128906 134.203125 L 188.972656 156.96875 L 179.445312 140.488281 L 145.921875 198.566406 C 142.933594 203.734375 144.917969 208.316406 145.921875 210.046875 C 146.929688 211.78125 149.890625 215.804688 155.867188 215.804688 C 159.945312 215.804688 163.773438 213.597656 165.785156 210.046875 L 192.6875 163.453125 L 205.84375 140.683594 L 211.878906 130.207031 C 215.035156 124.761719 221.992188 122.886719 227.441406 126.046875 C 232.886719 129.175781 234.757812 136.128906 231.601562 141.578125 Z M 231.601562 141.578125 " fill-opacity="1" fill-rule="nonzero"/></g><path fill="#e7e3dd" d="M 226.070312 114.535156 C 232.160156 128.253906 252.46875 119.84375 247.105469 105.820312 C 240.988281 92.132812 220.679688 100.539062 226.070312 114.535156 Z M 226.070312 114.535156 " fill-opacity="1" fill-rule="nonzero"/><g clip-path="url(#ccc577df07)"><g clip-path="url(#2588cedd4f)"><g clip-path="url(#95af982134)"><g transform="matrix(1, 0, 0, 1, 231, 157)"><g clip-path="url(#c82ee88d06)"><g clip-path="url(#63fd54e9a4)"><g clip-path="url(#64728d963e)"><g clip-path="url(#31b9d4c5f0)"><path fill="#e7e3dd" d="M 63.320312 8.164062 L 17.566406 86.484375 L -4.109375 73.824219 L 41.644531 -4.5 Z M 63.320312 8.164062 " fill-opacity="1" fill-rule="nonzero"/></g></g></g></g></g></g></g></g></svg>